<?xml version="1.0" encoding="UTF-8" standalone="no"?>
<!-- Created with Inkscape (http://www.inkscape.org/) -->

<svg
   xmlns:dc="http://purl.org/dc/elements/1.1/"
   xmlns:cc="http://creativecommons.org/ns#"
   xmlns:rdf="http://www.w3.org/1999/02/22-rdf-syntax-ns#"
   xmlns:svg="http://www.w3.org/2000/svg"
   xmlns="http://www.w3.org/2000/svg"
   xmlns:xlink="http://www.w3.org/1999/xlink"
   xmlns:sodipodi="http://sodipodi.sourceforge.net/DTD/sodipodi-0.dtd"
   xmlns:inkscape="http://www.inkscape.org/namespaces/inkscape"
   width="70.1483mm"
   height="70.1483mm"
   viewBox="0 0 70.148299 70.1483"
   version="1.1"
   id="svg8"
   inkscape:version="0.92.4 (33fec40, 2019-01-16)"
   sodipodi:docname="logo_hubup_squared_v2.svg">
  <defs
     id="defs2">
    <linearGradient
       gradientTransform="matrix(0.26458333,0,0,0.26458333,151.82288,60.503907)"
       inkscape:collect="always"
       xlink:href="#linearGradient1115"
       id="linearGradient335-3-0-3-4-3"
       gradientUnits="userSpaceOnUse"
       x1="-653.89154"
       y1="222.55084"
       x2="-497.68134"
       y2="134.74576" />
    <linearGradient
       inkscape:collect="always"
       id="linearGradient1115">
      <stop
         style="stop-color:#238dc2;stop-opacity:1"
         offset="0"
         id="stop1111" />
      <stop
         style="stop-color:#19dbca;stop-opacity:1"
         offset="1"
         id="stop1113" />
    </linearGradient>
    <linearGradient
       gradientTransform="matrix(0.26458333,0,0,0.26458333,151.82288,60.503907)"
       inkscape:collect="always"
       xlink:href="#linearGradient847"
       id="linearGradient333-5-6-0-4-5"
       gradientUnits="userSpaceOnUse"
       x1="-734.76099"
       y1="244.39153"
       x2="-656.23389"
       y2="221.13899" />
    <linearGradient
       inkscape:collect="always"
       id="linearGradient847">
      <stop
         style="stop-color:#13629f;stop-opacity:1;"
         offset="0"
         id="stop866" />
      <stop
         style="stop-color:#279cc2;stop-opacity:1"
         offset="1"
         id="stop868" />
    </linearGradient>
  </defs>
  <sodipodi:namedview
     id="base"
     pagecolor="#ffffff"
     bordercolor="#666666"
     borderopacity="1.0"
     inkscape:pageopacity="0.0"
     inkscape:pageshadow="2"
     inkscape:zoom="0.7"
     inkscape:cx="151.49007"
     inkscape:cy="36.264434"
     inkscape:document-units="mm"
     inkscape:current-layer="g29"
     showgrid="false"
     fit-margin-top="0"
     fit-margin-left="0"
     fit-margin-right="0"
     fit-margin-bottom="0"
     inkscape:window-width="1853"
     inkscape:window-height="1025"
     inkscape:window-x="3907"
     inkscape:window-y="27"
     inkscape:window-maximized="1" />
  <metadata
     id="metadata5">
    <rdf:RDF>
      <cc:Work
         rdf:about="">
        <dc:format>image/svg+xml</dc:format>
        <dc:type
           rdf:resource="http://purl.org/dc/dcmitype/StillImage" />
        <dc:title></dc:title>
      </cc:Work>
    </rdf:RDF>
  </metadata>
  <g
     inkscape:label="Layer 1"
     inkscape:groupmode="layer"
     id="layer1"
     transform="translate(47.9731,-78.229411)">
    <g
       aria-label="Hubup"
       style="font-style:normal;font-variant:normal;font-weight:bold;font-stretch:normal;font-size:49.01742935px;line-height:1.25;font-family:'Nexa Bold';-inkscape-font-specification:'Nexa Bold, Bold';letter-spacing:0px;word-spacing:0px;fill:#383838;fill-opacity:1;stroke:none;stroke-width:0.26458332"
       id="text891-4-1-9-1-8-1-8-91">
      <g
         id="g56">
        <g
           id="g44">
          <g
             id="g50">
            <g
               id="g29"
               transform="translate(5.2916667)">
              <g
                 id="g33"
                 transform="translate(2.6458333)">
                <path
                   sodipodi:nodetypes="cccccccccccscccccccc"
                   inkscape:connector-curvature="0"
                   id="polygon10-4-5-7-2-6-0-8-6"
                   d="m -38.419045,138.92762 c -2.499836,-1.49045 -4.999858,-2.98061 -7.499879,-4.47074 -2.063194,-1.19121 -2.05478,-1.14943 -2.054145,-3.51161 l 0.02487,-23.67079 c 0,-4.52593 -0.0063,-4.5453 4.620313,-7.13581 6.323568,-3.592931 12.647136,-7.185866 18.970678,-10.778802 3.08864,-1.783212 3.103404,-1.812237 6.073537,-0.09742 l 0.431774,0.257757 c 1.86428,1.202373 1.872827,1.203484 1.865233,3.286575 l -0.04048,21.64426 c 0,0.27771 -0.1075,0.42474 -0.380974,0.42474 h -10.029483 c -0.371581,0 -0.465772,-0.18079 -0.465772,-0.49493 v -9.72251 c 0,-0.85976 -0.59989,-0.95607 -0.974831,-0.73959 l -8.157157,4.62166 c -1.005655,0.58063 -1.001633,0.58571 -1.007137,1.7068 l -0.04022,27.74654 c -0.01693,1.72561 -0.03474,1.70995 -1.336569,0.93387 z"
                   style="font-style:normal;font-variant:normal;font-weight:bold;font-stretch:normal;font-size:49.01742935px;line-height:1.25;font-family:'Nexa Bold';-inkscape-font-specification:'Nexa Bold, Bold';letter-spacing:0px;word-spacing:0px;fill:url(#linearGradient333-5-6-0-4-5);fill-opacity:1;stroke:none;stroke-width:0.26458332" />
                <path
                   sodipodi:nodetypes="ccccccccccccccccccccc"
                   inkscape:connector-curvature="0"
                   id="polygon12-7-6-5-9-1-6-6-2"
                   d="M 0.49714246,136.18135 -18.348943,146.88933 c -3.414608,1.97144 -3.431462,1.96874 -6.570637,0.0852 -2.038959,-1.17719 -2.036498,-1.17181 -2.036498,-3.36063 l 0.02196,-19.13435 c 0,-0.47109 0.151077,-0.60796 0.628439,-0.60796 h 9.750558 c 0.413067,0 0.526203,0.22135 0.526203,0.54663 v 7.19354 c 0,0.74136 0.373512,1.21201 1.226794,0.71935 l 6.5652125,-3.71972 c 2.285259,-1.23852 2.341536,-1.22039 2.341536,-3.66406 l 0.02646,-46.27136 c 0,-0.438177 0.15957,-0.571103 0.591423,-0.321786 l 17.1555285,10.48126 c 0.374438,0.216191 0.476514,0.666776 -0.194945,0.666776 H 5.3402875 c -0.301916,0 -0.308372,0.0074 -0.308372,0.321786 l -0.0381,38.767064 c 0,4.96467 0.02355,4.98046 -4.49675204,7.59026 z"
                   style="font-style:normal;font-variant:normal;font-weight:bold;font-stretch:normal;font-size:49.01742935px;line-height:1.25;font-family:'Nexa Bold';-inkscape-font-specification:'Nexa Bold, Bold';letter-spacing:0px;word-spacing:0px;fill:url(#linearGradient335-3-0-3-4-3);fill-opacity:1;stroke:none;stroke-width:0.26458332" />
              </g>
            </g>
          </g>
        </g>
      </g>
    </g>
  </g>
</svg>
