<?xml version="1.0" encoding="UTF-8" standalone="no"?>
<!-- Created with Inkscape (http://www.inkscape.org/) -->

<svg
   xmlns:dc="http://purl.org/dc/elements/1.1/"
   xmlns:cc="http://creativecommons.org/ns#"
   xmlns:rdf="http://www.w3.org/1999/02/22-rdf-syntax-ns#"
   xmlns:svg="http://www.w3.org/2000/svg"
   xmlns="http://www.w3.org/2000/svg"
   xmlns:sodipodi="http://sodipodi.sourceforge.net/DTD/sodipodi-0.dtd"
   xmlns:inkscape="http://www.inkscape.org/namespaces/inkscape"
   width="338.66666mm"
   height="338.66666mm"
   viewBox="0 0 1200 1200"
   id="svg2"
   version="1.1"
   inkscape:version="0.91 r"
   sodipodi:docname="logo_rounded.svg"
   inkscape:export-filename="/home/quentin/AVisuals/PNG/logo_big.png"
   inkscape:export-xdpi="90"
   inkscape:export-ydpi="90">
  <defs
     id="defs4" />
  <sodipodi:namedview
     id="base"
     pagecolor="#ffffff"
     bordercolor="#666666"
     borderopacity="1.0"
     inkscape:pageopacity="0"
     inkscape:pageshadow="2"
     inkscape:zoom="0.35355339"
     inkscape:cx="-297.82385"
     inkscape:cy="359.99469"
     inkscape:document-units="px"
     inkscape:current-layer="g4177"
     showgrid="false"
     inkscape:window-width="1855"
     inkscape:window-height="1056"
     inkscape:window-x="1985"
     inkscape:window-y="24"
     inkscape:window-maximized="1"
     fit-margin-top="0"
     fit-margin-left="0"
     fit-margin-right="0"
     fit-margin-bottom="0" />
  <metadata
     id="metadata7">
    <rdf:RDF>
      <cc:Work
         rdf:about="">
        <dc:format>image/svg+xml</dc:format>
        <dc:type
           rdf:resource="http://purl.org/dc/dcmitype/StillImage" />
        <dc:title></dc:title>
      </cc:Work>
    </rdf:RDF>
  </metadata>
  <g
     inkscape:label="Layer 1"
     inkscape:groupmode="layer"
     id="layer1"
     transform="translate(3.0789062e-5,147.63784)">
    <g
       transform="translate(-64.321867,-28.963937)"
       id="layer1-3"
       inkscape:label="Calque 1">
      <g
         id="g4181"
         transform="translate(34.16677,-141.43579)">
        <g
           id="g3367"
           transform="translate(1093.9047,789.50725)">
          <g
             id="g4177">
            <rect
               style="fill:#3f98f4;fill-opacity:1;stroke:none;stroke-opacity:1"
               id="rect4232"
               width="1200"
               height="1200"
               x="-1063.7496"
               y="-766.74536"
               rx="103.28949"
               ry="103.28949" />
            <g
               id="g4226"
               transform="matrix(2.5,0,0,2.5,1570.6245,-624.88201)">
              <path
                 sodipodi:nodetypes="ccccccccccccccccc"
                 inkscape:connector-curvature="0"
                 id="path4832"
                 d="m -834.29801,177.38695 -34.22544,0 -1.6e-4,-29.3361 -34.22546,0 -9.80654,-9.84268 97.81485,-97.723022 95.86611,98.245872 -7.8578,9.31983 -34.22544,0 0,101.77348 c -0.4192,-4.15699 -8.58203,-18.57858 -34.22532,-18.65453 l 0,-107.5657 14.6679,0 -34.22545,-34.225443 -34.22546,34.225433 14.66805,0 z"
                 style="fill:#ffffff;fill-opacity:1;fill-rule:evenodd;stroke:none" />
              <path
                 sodipodi:nodetypes="cccccccccssccccccccccccccccccccsscccccccccccccc"
                 inkscape:connector-curvature="0"
                 id="path4923"
                 d="m -1013.7496,17.273679 0,165.980001 0,165.982 c 0,19.95117 16.3756,34.019 34.021,34.019 l 55.68433,0 89.70336,0 0,-50.07957 0,-50.07957 c 10.16236,-0.31508 18.0013,-0.15201 27.335,-0.0999 9.02953,0.73323 12.22601,2.75626 13.4462,8.51305 0.28535,1.34623 0.40147,14.95309 0.40147,46.82281 l 0,44.92318 89.70531,0 55.68433,0 c 18.82161,0 34.01903,-14.49937 34.01903,-34.019 l 0,-165.98202 0,-165.979981 c 0,-19.3536763 -15.25396,-34.019031 -34.01903,-34.019031 l -165.98,0 -165.98,1.7e-5 c -17.8568,0 -34.021,13.7471637 -34.021,34.019014 z m 51.1327,-8.1e-5 148.8683,0 148.95619,7.3e-5 c 9.69077,0 17.02381,7.749648 17.02382,17.023812 l 9e-5,148.956197 -9e-5,148.91254 c 0,7.82192 -6.0715,17.06948 -17.20059,17.06948 l -38.48375,6e-5 -55.68442,0 -0.004,-28.9174 c -0.005,-42.82538 -0.51622,-49.15445 -4.50818,-55.81955 -2.59214,-4.3279 -8.14915,-8.99016 -14.26481,-11.96763 -7.36453,-3.5855 -12.31193,-4.08981 -37.71438,-3.69153 l -18.71227,0.24284 0,-27.63267 0,-27.6307 -17.00849,0 -17.01044,0 0,77.7083 0,77.70834 -55.68443,0 -38.44005,-6e-5 c -9.5925,0 -17.2442,-7.7644 -17.2442,-16.89271 l -2e-4,-149.08935 2e-4,-148.956157 c 0,-8.665202 6.7959,-17.023885 17.1117,-17.023885 z"
                 style="fill:#ffffff;fill-opacity:1;fill-rule:nonzero;stroke:#cff1a2;stroke-width:0;stroke-linecap:round;stroke-linejoin:miter;stroke-miterlimit:4;stroke-dasharray:none;stroke-opacity:1" />
            </g>
          </g>
        </g>
      </g>
    </g>
  </g>
</svg>
